<?xml version="1.0" encoding="UTF-8" standalone="no"?>
<svg
   xmlns:dc="http://purl.org/dc/elements/1.1/"
   xmlns:cc="http://creativecommons.org/ns#"
   xmlns:rdf="http://www.w3.org/1999/02/22-rdf-syntax-ns#"
   xmlns:svg="http://www.w3.org/2000/svg"
   xmlns="http://www.w3.org/2000/svg"
   xmlns:xlink="http://www.w3.org/1999/xlink"
   width="53.518661mm"
   height="53.437256mm"
   viewBox="0 0 53.518656 53.437256"
   version="1.1"
   id="svg8">
  <defs
     id="defs2">
    <linearGradient
       id="linearGradient1292">
      <stop
         style="stop-color:#b5ecf9;stop-opacity:1"
         offset="0"
         id="stop1288" />
      <stop
         style="stop-color:#beeefa;stop-opacity:1"
         offset="0.41806847"
         id="stop1296" />
      <stop
         style="stop-color:#ffffff;stop-opacity:1"
         offset="1"
         id="stop1290" />
    </linearGradient>
    <linearGradient
       id="linearGradient1228">
      <stop
         style="stop-color:#d3430e;stop-opacity:1"
         offset="0"
         id="stop1224" />
      <stop
         style="stop-color:#a12805;stop-opacity:1"
         offset="1"
         id="stop1226" />
    </linearGradient>
    <linearGradient
       id="linearGradient1088">
      <stop
         style="stop-color:#00adef;stop-opacity:1;"
         offset="0"
         id="stop1084" />
      <stop
         style="stop-color:#7ae7fb;stop-opacity:1"
         offset="1"
         id="stop1086" />
    </linearGradient>
    <linearGradient
       id="linearGradient1178">
      <stop
         style="stop-color:#aeb0b4;stop-opacity:1"
         offset="0"
         id="stop1174" />
      <stop
         style="stop-color:#e6e6e6;stop-opacity:1"
         offset="0.50718993"
         id="stop1182" />
      <stop
         style="stop-color:#b1b2b6;stop-opacity:1"
         offset="1"
         id="stop1176" />
    </linearGradient>
    <linearGradient
       xlink:href="#linearGradient1178"
       id="linearGradient1180"
       x1="41.428574"
       y1="1080"
       x2="991.42859"
       y2="1080"
       gradientUnits="userSpaceOnUse"
       gradientTransform="matrix(0.19135973,0,0,0.18293294,25.892112,66.878929)" />
    <style
       type="text/css"
       id="style6"><![CDATA[
    .fil0 {fill:#1F1A17}
    .fil4 {fill:white}
    .fil2 {fill:#E51E2A}
    .fil3 {fill:white}
    .fil1 {fill:url(#id0)}
   ]]></style>
    <linearGradient
       id="id0"
       gradientUnits="userSpaceOnUse"
       x1="10.2224"
       y1="228.21001"
       x2="214.13699"
       y2="228.21001"
       gradientTransform="translate(82.741733,34.42837)">
      <stop
         offset="0"
         style="stop-color:#A7B6BF"
         id="stop9" />
      <stop
         offset="0.0705882"
         style="stop-color:#AAB8C1"
         id="stop11" />
      <stop
         offset="0.211765"
         style="stop-color:white"
         id="stop13" />
      <stop
         offset="0.368627"
         style="stop-color:#A7B6BF"
         id="stop15" />
      <stop
         offset="0.490196"
         style="stop-color:#A7B6BF"
         id="stop17" />
      <stop
         offset="0.611765"
         style="stop-color:#A7B6BF"
         id="stop19" />
      <stop
         offset="0.768627"
         style="stop-color:white"
         id="stop21" />
      <stop
         offset="0.921569"
         style="stop-color:#AEBCC5"
         id="stop23" />
      <stop
         offset="1"
         style="stop-color:#A7B6BF"
         id="stop25" />
    </linearGradient>
    <style
       type="text/css"
       id="style6-1"><![CDATA[
    .fil0 {fill:#1F1A17}
    .fil4 {fill:white}
    .fil2 {fill:#E51E2A}
    .fil3 {fill:white}
    .fil1 {fill:url(#id0)}
   ]]></style>
    <style
       type="text/css"
       id="style6-8"><![CDATA[
    .fil3 {fill:#1F1A17}
    .fil0 {fill:black}
    .fil1 {fill:white}
    .fil2 {fill:#DE3E3F}
   ]]></style>
    <style
       type="text/css"
       id="style6-16"><![CDATA[
    .fil0 {fill:#1F1A17}
    .fil4 {fill:white}
    .fil2 {fill:#E51E2A}
    .fil3 {fill:white}
    .fil1 {fill:url(#id0)}
   ]]></style>
    <style
       type="text/css"
       id="style6-1-3"><![CDATA[
    .fil0 {fill:#1F1A17}
    .fil4 {fill:white}
    .fil2 {fill:#E51E2A}
    .fil3 {fill:white}
    .fil1 {fill:url(#id0)}
   ]]></style>
    <style
       type="text/css"
       id="style6-4"><![CDATA[
    .fil0 {fill:#1F1A17}
    .fil4 {fill:white}
    .fil2 {fill:#E51E2A}
    .fil3 {fill:white}
    .fil1 {fill:url(#id0)}
   ]]></style>
    <style
       type="text/css"
       id="style6-1-39"><![CDATA[
    .fil0 {fill:#1F1A17}
    .fil4 {fill:white}
    .fil2 {fill:#E51E2A}
    .fil3 {fill:white}
    .fil1 {fill:url(#id0)}
   ]]></style>
    <style
       type="text/css"
       id="style6-8-1"><![CDATA[
    .fil3 {fill:#1F1A17}
    .fil0 {fill:black}
    .fil1 {fill:white}
    .fil2 {fill:#DE3E3F}
   ]]></style>
    <style
       type="text/css"
       id="style6-16-1"><![CDATA[
    .fil0 {fill:#1F1A17}
    .fil4 {fill:white}
    .fil2 {fill:#E51E2A}
    .fil3 {fill:white}
    .fil1 {fill:url(#id0)}
   ]]></style>
    <style
       type="text/css"
       id="style6-1-3-6"><![CDATA[
    .fil0 {fill:#1F1A17}
    .fil4 {fill:white}
    .fil2 {fill:#E51E2A}
    .fil3 {fill:white}
    .fil1 {fill:url(#id0)}
   ]]></style>
    <linearGradient
       xlink:href="#linearGradient1088"
       id="linearGradient1090"
       x1="150.8125"
       y1="-10.016369"
       x2="153.45833"
       y2="1.3229166"
       gradientUnits="userSpaceOnUse" />
    <linearGradient
       xlink:href="#linearGradient1228"
       id="linearGradient1230"
       x1="169.87651"
       y1="16.650892"
       x2="169.68942"
       y2="28.811655"
       gradientUnits="userSpaceOnUse" />
    <linearGradient
       xlink:href="#linearGradient1292"
       id="linearGradient1294"
       x1="194.99791"
       y1="34.660416"
       x2="164.52222"
       y2="69.573738"
       gradientUnits="userSpaceOnUse" />
    <filter
       style="color-interpolation-filters:sRGB"
       id="filter1370"
       x="-0.11569023"
       width="1.2313805"
       y="-0.23983184"
       height="1.4796637">
      <feGaussianBlur
         stdDeviation="5.6606242"
         id="feGaussianBlur1372" />
    </filter>
    <mask
       maskUnits="userSpaceOnUse"
       id="mask1412">
      <path
         style="fill:#89eefd;fill-opacity:1;stroke:none;stroke-width:0.264583px;stroke-linecap:butt;stroke-linejoin:miter;stroke-opacity:1;filter:url(#filter1370)"
         d="m 202.25565,144.81927 c -2.05794,-1.80855 -5.23845,-4.24071 -10.72645,-6.70413 -5.488,-2.46342 -13.2832,-4.95788 -25.75597,-6.23637 -12.47278,-1.27849 -29.62223,-1.34086 -42.4067,-4.92668 -12.78447,-3.58582 -21.20329,-10.69504 -26.130037,-15.77761 -4.926751,-5.08257 -6.361069,-8.13828 -7.670787,-8.94913 -1.309718,-0.81085 -2.494589,0.62347 -2.619252,3.11816 -0.124664,2.4947 0.81076,6.04931 2.900011,10.25885 2.08925,4.20954 5.332055,9.07375 9.853469,13.53269 4.521416,4.45894 10.321056,8.51245 17.492876,12.19184 7.17182,3.6794 15.71537,6.98457 25.16345,9.82208 9.44807,2.83751 19.8001,5.20725 28.15678,6.48566 8.35667,1.27841 14.71756,1.46549 20.33016,-0.156 5.6126,-1.62149 10.47681,-5.05138 12.44131,-7.35866 1.96451,-2.30727 1.02908,-3.49214 -1.02886,-5.3007 z"
         id="path1414" />
    </mask>
    <style
       id="style2359">.cls-1{fill:#00a2ff;}</style>
    <style
       id="style2528">.cls-1{fill:#f6b702;}</style>
    <style
       id="style2643">.cls-1{fill:#f68802;}.cls-2{fill:#191919;}</style>
  </defs>
  <metadata
     id="metadata5">
    <rdf:RDF>
      <cc:Work
         rdf:about="">
        <dc:format>image/svg+xml</dc:format>
        <dc:type
           rdf:resource="http://purl.org/dc/dcmitype/StillImage" />
        <dc:title></dc:title>
      </cc:Work>
    </rdf:RDF>
  </metadata>
  <g
     id="layer1"
     transform="translate(-268.71318,39.650323)">
    <path
       id="rect2465"
       style="opacity:1;fill:#ffffff;fill-opacity:1;fill-rule:evenodd;stroke:none;stroke-width:1.62208;stroke-linecap:round;stroke-miterlimit:4;stroke-dasharray:none;stroke-opacity:1;paint-order:stroke fill markers;stop-color:#000000"
       d="m 159.96997,-39.257736 v 52.784492 h 16.47466 V 6.5082539 h -9.45617 V -32.239236 h 9.45617 v -7.0185 z" />
    <path
       id="rect2465-7"
       style="fill:#ffffff;fill-opacity:1;fill-rule:evenodd;stroke:none;stroke-width:1.62208;stroke-linecap:round;stroke-miterlimit:4;stroke-dasharray:none;stroke-opacity:1;paint-order:stroke fill markers;stop-color:#000000"
       d="M 212.75434,-39.257617 V 13.526875 H 196.27968 V 6.5083715 h 9.45617 V -32.239118 h -9.45617 v -7.018499 z" />
    <g
       id="g2641"
       style="fill:#f6b702;fill-opacity:1">
      <path
         id="path2458"
         style="color:#000000;font-style:normal;font-variant:normal;font-weight:normal;font-stretch:normal;font-size:medium;line-height:normal;font-family:sans-serif;font-variant-ligatures:normal;font-variant-position:normal;font-variant-caps:normal;font-variant-numeric:normal;font-variant-alternates:normal;font-variant-east-asian:normal;font-feature-settings:normal;font-variation-settings:normal;text-indent:0;text-align:start;text-decoration:none;text-decoration-line:none;text-decoration-style:solid;text-decoration-color:#000000;letter-spacing:normal;word-spacing:normal;text-transform:none;writing-mode:lr-tb;direction:ltr;text-orientation:mixed;dominant-baseline:auto;baseline-shift:baseline;text-anchor:start;white-space:normal;shape-padding:0;shape-margin:0;inline-size:0;clip-rule:nonzero;display:inline;overflow:visible;visibility:visible;isolation:auto;mix-blend-mode:normal;color-interpolation:sRGB;color-interpolation-filters:linearRGB;solid-color:#000000;solid-opacity:1;vector-effect:none;fill:#f6b702;fill-opacity:1;fill-rule:nonzero;stroke:none;stroke-width:1.52113;stroke-linecap:butt;stroke-linejoin:miter;stroke-miterlimit:4;stroke-dasharray:none;stroke-dashoffset:0;stroke-opacity:1;color-rendering:auto;image-rendering:auto;shape-rendering:auto;text-rendering:auto;enable-background:accumulate;stop-color:#000000"
         d="m 186.21824,-30.189621 -0.041,0.0021 c -0.44818,0.0241 -0.91951,0.142835 -1.32224,0.466029 l -12.50483,10.035485 c -0.63527,0.509805 -1.29151,1.186304 -1.74463,1.98829 -0.45312,0.801989 -0.71312,1.804084 -0.3138,2.763968 0.35867,0.862149 1.07373,1.630331 2.09843,1.838662 0.9039,0.183773 1.92164,0.03122 2.69278,-0.613061 l 11.13533,-9.303969 11.13533,9.303969 c 0.77113,0.644285 1.78888,0.796834 2.69278,0.613061 1.0247,-0.208331 1.73975,-0.97651 2.09843,-1.838662 0.39932,-0.959884 0.13932,-1.961979 -0.3138,-2.763968 -0.45312,-0.801986 -1.10936,-1.478485 -1.74462,-1.98829 l -12.50485,-10.035485 c -0.40272,-0.323178 -0.87403,-0.441939 -1.32222,-0.466029 z" />
      <path
         id="path2458-6"
         style="color:#000000;font-style:normal;font-variant:normal;font-weight:normal;font-stretch:normal;font-size:medium;line-height:normal;font-family:sans-serif;font-variant-ligatures:normal;font-variant-position:normal;font-variant-caps:normal;font-variant-numeric:normal;font-variant-alternates:normal;font-variant-east-asian:normal;font-feature-settings:normal;font-variation-settings:normal;text-indent:0;text-align:start;text-decoration:none;text-decoration-line:none;text-decoration-style:solid;text-decoration-color:#000000;letter-spacing:normal;word-spacing:normal;text-transform:none;writing-mode:lr-tb;direction:ltr;text-orientation:mixed;dominant-baseline:auto;baseline-shift:baseline;text-anchor:start;white-space:normal;shape-padding:0;shape-margin:0;inline-size:0;clip-rule:nonzero;display:inline;overflow:visible;visibility:visible;isolation:auto;mix-blend-mode:normal;color-interpolation:sRGB;color-interpolation-filters:linearRGB;solid-color:#000000;solid-opacity:1;vector-effect:none;fill:#f6b702;fill-opacity:1;fill-rule:nonzero;stroke:none;stroke-width:1.52113;stroke-linecap:butt;stroke-linejoin:miter;stroke-miterlimit:4;stroke-dasharray:none;stroke-dashoffset:0;stroke-opacity:1;color-rendering:auto;image-rendering:auto;shape-rendering:auto;text-rendering:auto;enable-background:accumulate;stop-color:#000000"
         d="m 186.21824,-16.034413 -0.041,0.0021 c -0.44818,0.0241 -0.91951,0.142835 -1.32224,0.466029 l -12.50483,10.0354853 c -0.63527,0.509805 -1.29151,1.186304 -1.74463,1.98829 -0.45312,0.801989 -0.71312,1.804084 -0.3138,2.76396798 0.35867,0.862149 1.07373,1.630331 2.09843,1.83866202 0.9039,0.183773 1.92164,0.03122 2.69278,-0.61306102 l 11.13533,-9.30396898 11.13533,9.30396898 c 0.77113,0.64428502 1.78888,0.79683402 2.69278,0.61306102 1.0247,-0.20833102 1.73975,-0.97651002 2.09843,-1.83866202 0.39932,-0.95988398 0.13932,-1.96197898 -0.3138,-2.76396798 -0.45312,-0.801986 -1.10936,-1.478485 -1.74462,-1.98829 L 187.58155,-15.566284 c -0.40272,-0.323178 -0.87403,-0.441939 -1.32222,-0.466029 z" />
    </g>
    <g
       id="g2724"
       transform="translate(39.290625)">
      <path
         class="cls-1"
         d="m 267.32971,-30.804332 a 1.6944681,1.6944681 0 0 1 -0.89183,-0.222956 l -10.25599,-4.080101 -10.25599,4.303057 a 2.2295633,2.2295633 0 0 1 -2.89843,-1.337738 2.0734939,2.0734939 0 0 1 1.33773,-2.898432 l 11.14782,-4.459127 a 2.0957895,2.0957895 0 0 1 1.56069,0 l 11.14782,4.459127 a 2.2295633,2.2295633 0 0 1 1.33774,2.898432 2.4525196,2.4525196 0 0 1 -2.22956,1.337738 z"
         id="path2655"
         style="stroke-width:2.22956" />
      <path
         class="cls-1"
         d="m 267.32971,-21.886079 a 1.6944681,1.6944681 0 0 1 -0.89183,-0.222956 l -10.25599,-4.080101 -10.25599,4.303057 a 2.2295633,2.2295633 0 0 1 -2.89843,-1.337738 2.0734939,2.0734939 0 0 1 1.33773,-2.898432 l 11.14782,-4.459126 a 1.8951288,1.8951288 0 0 1 1.56069,0 l 11.14782,4.459126 a 2.2295633,2.2295633 0 0 1 1.33774,2.898432 2.4525196,2.4525196 0 0 1 -2.22956,1.337738 z"
         id="path2657"
         style="stroke-width:2.22956" />
      <path
         class="cls-1"
         d="m 267.32971,-12.967825 a 1.6944681,1.6944681 0 0 1 -0.89183,-0.222957 l -10.25599,-4.080101 -10.25599,4.303058 a 2.2295633,2.2295633 0 0 1 -2.89843,-1.337738 2.0734939,2.0734939 0 0 1 1.33773,-2.898433 l 11.14782,-4.459126 a 1.8951288,1.8951288 0 0 1 1.56069,0 l 11.14782,4.459126 a 2.2295633,2.2295633 0 0 1 1.33774,2.898433 2.4525196,2.4525196 0 0 1 -2.22956,1.337738 z"
         id="path2659"
         style="stroke-width:2.22956" />
    </g>
    <path
       class="cls-2"
       d="m 320.88953,-12.811756 -3.12139,-1.560694 v -14.202318 a 2.0289026,2.0289026 0 0 0 -0.66887,-1.560695 l -2.22956,-2.229563 a 2.2295633,2.2295633 0 1 0 -3.12139,3.121389 l 1.5607,1.560694 v 14.715118 a 2.2295633,2.2295633 0 0 0 1.33773,2.006607 l 3.12139,1.5606939 v 0.8918253 h -44.59126 v -0.8918253 l 3.12139,-1.5606939 a 2.2295633,2.2295633 0 0 0 1.33773,-2.006607 V -27.74983 l 1.5607,-1.560694 a 2.2295633,2.2295633 0 1 0 -3.12139,-3.121389 l -2.22956,2.229563 a 2.0289026,2.0289026 0 0 0 -0.66887,1.627582 v 14.269205 l -3.12139,1.560694 a 2.2295633,2.2295633 0 0 0 -1.33774,2.006607 v 4.4591265 a 2.0957895,2.0957895 0 0 0 2.22956,2.2295633 h 2.45252 c 1.11478,10.4789475 10.03304,17.8365062 22.07268,17.8365062 12.03964,0 20.95789,-7.3575587 22.07268,-17.8365062 h 2.45252 a 2.0957895,2.0957895 0 0 0 2.22956,-2.2295633 v -4.4591265 a 2.2295633,2.2295633 0 0 0 -1.33774,-2.073494 z M 295.47251,9.3278076 c -9.58712,0 -16.49877,-5.3509519 -17.61355,-13.3773798 h 35.2271 c -1.11478,7.959541 -8.02643,13.3773798 -17.61355,13.3773798 z"
       id="path2661"
       style="stroke-width:2.22956" />
  </g>
  <style
     type="text/css"
     id="style3265">
	.st0{fill-rule:evenodd;clip-rule:evenodd;fill:#999999;}
	.st1{fill-rule:evenodd;clip-rule:evenodd;fill:#FF9000;}
</style>
  <style
     type="text/css"
     id="style3709">
	.st0{fill:#8CD024;}
	.st1{fill:#231F20;}
	.st2{fill-rule:evenodd;clip-rule:evenodd;fill:#8CD024;}
</style>
  <style
     type="text/css"
     id="style3265-8">
	.st0{fill-rule:evenodd;clip-rule:evenodd;fill:#999999;}
	.st1{fill-rule:evenodd;clip-rule:evenodd;fill:#FF9000;}
</style>
  <style
     type="text/css"
     id="style3709-0">
	.st0{fill:#8CD024;}
	.st1{fill:#231F20;}
	.st2{fill-rule:evenodd;clip-rule:evenodd;fill:#8CD024;}
</style>
</svg>
